<svg viewBox="0 0 1449 1006" fill="none" xmlns="http://www.w3.org/2000/svg" class="img_banner">
<g id="quiz">
<g id="girl_body">
<path id="Vector" d="M982.975 983.806H961.945L951.939 903.888H982.98L982.975 983.806Z" fill="#A0616A"/>
<path id="Vector_2" d="M946.922 977.885H987.482V1003.04H921.384C921.384 999.74 922.045 996.469 923.328 993.416C924.611 990.364 926.493 987.59 928.864 985.254C931.235 982.918 934.051 981.065 937.149 979.8C940.247 978.536 943.568 977.885 946.922 977.885Z" fill="#2F2E41"/>
<path id="Vector_3" d="M1145.94 983.806H1124.91L1114.91 903.888H1145.95L1145.94 983.806Z" fill="#A0616A"/>
<path id="Vector_4" d="M1109.89 977.885H1150.45V1003.04H1084.35C1084.35 999.74 1085.01 996.469 1086.3 993.416C1087.58 990.364 1089.46 987.59 1091.83 985.254C1094.2 982.918 1097.02 981.065 1100.12 979.8C1103.22 978.536 1106.54 977.885 1109.89 977.885Z" fill="#2F2E41"/>
<path id="Vector_5" d="M1095.37 595.571L1114.22 552.898C1118.8 542.887 1120.11 531.723 1117.97 520.947C1115.84 510.17 1110.36 500.312 1102.3 492.733C1100.64 491.12 1098.88 489.613 1097.03 488.221C1087.73 481.052 1076.26 477.144 1064.45 477.118C1056.51 477.148 1048.67 478.866 1041.47 482.154C1040.85 482.424 1040.25 482.712 1039.63 482.999C1038.45 483.557 1037.28 484.165 1036.15 484.79C1028.76 488.968 1022.48 494.797 1017.8 501.807C1013.12 508.817 1010.18 516.812 1009.22 525.148L1000.9 593.83C998.803 599.221 924.146 793.911 950.256 942.547C950.534 944.134 951.319 945.593 952.498 946.709C953.677 947.824 955.188 948.54 956.809 948.75L983.278 952.299C985.211 952.559 987.172 952.088 988.767 950.981C990.361 949.875 991.471 948.213 991.872 946.333L1036.29 737.768C1036.56 736.472 1037.27 735.305 1038.3 734.454C1039.33 733.602 1040.62 733.115 1041.96 733.07C1043.31 733.025 1044.63 733.426 1045.71 734.207C1046.8 734.988 1047.59 736.105 1047.95 737.38L1110.7 956.71C1111.15 958.303 1112.11 959.708 1113.45 960.71C1114.79 961.711 1116.42 962.253 1118.1 962.253C1118.6 962.25 1119.1 962.204 1119.59 962.118L1151.92 955.983C1153.8 955.637 1155.48 954.611 1156.64 953.107C1157.79 951.603 1158.33 949.73 1158.15 947.854C1153.4 895.649 1128.15 634.154 1095.37 595.571Z" fill="#2F2E41"/>
<path id="Vector_6" d="M1059.54 537.786C1059.21 537.786 1058.87 537.765 1058.54 537.724C1057.08 537.55 1055.71 536.969 1054.58 536.049C1053.46 535.13 1052.62 533.911 1052.17 532.537L1036.49 485.168C1036.1 483.97 1036.16 482.673 1036.66 481.515C1037.16 480.358 1038.07 479.42 1039.22 478.873L1039.73 478.636C1040.19 478.42 1040.65 478.206 1041.12 478.001C1048.43 474.66 1056.39 472.917 1064.45 472.893C1074.92 472.912 1085.15 475.94 1093.89 481.607C1095.06 482.376 1095.88 483.567 1096.17 484.925C1096.46 486.282 1096.2 487.697 1095.44 488.865L1066.02 534.272C1065.33 535.35 1064.37 536.238 1063.24 536.853C1062.11 537.467 1060.83 537.789 1059.54 537.786Z" fill="#E6E6E6"/>
</g>
<g id="boy_body">
<path id="Vector_7" d="M217.075 984.576L238.105 984.575L248.111 904.657L217.07 904.659L217.075 984.576Z" fill="#FFB8B8"/>
<path id="Vector_8" d="M278.666 1003.81L212.569 1003.82L212.567 978.657L253.127 978.655C259.9 978.655 266.396 981.305 271.185 986.023C275.975 990.741 278.666 997.14 278.666 1003.81L278.666 1003.81Z" fill="#2F2E41"/>
<path id="Vector_9" d="M141.595 984.576L162.625 984.575L172.631 904.657L141.59 904.659L141.595 984.576Z" fill="#FFB8B8"/>
<path id="Vector_10" d="M203.186 1003.81L137.089 1003.82L137.087 978.657L177.647 978.655C184.42 978.655 190.916 981.305 195.706 986.023C200.495 990.741 203.186 997.14 203.186 1003.81L203.186 1003.81Z" fill="#2F2E41"/>
<path id="Vector_11" d="M159.973 959.998L139.431 958.933C138.371 958.878 137.334 958.617 136.378 958.164C135.422 957.711 134.567 957.076 133.862 956.295C133.157 955.515 132.616 954.604 132.271 953.616C131.926 952.628 131.783 951.582 131.851 950.539L156.404 682.729L269.471 712.787L280.364 709.86L246.298 946.943C246.008 948.726 245.109 950.359 243.75 951.571C242.391 952.783 240.652 953.502 238.822 953.609L216.678 954.625C215.57 954.686 214.462 954.52 213.424 954.137C212.385 953.754 211.438 953.163 210.643 952.401C209.848 951.64 209.222 950.724 208.805 949.712C208.387 948.7 208.187 947.613 208.218 946.521L212.23 804.228C212.249 803.57 212.017 802.929 211.58 802.431C211.143 801.933 210.532 801.615 209.868 801.539C209.205 801.462 208.536 801.633 207.994 802.019C207.453 802.404 207.077 802.975 206.941 803.619L168.246 953.714C167.881 955.494 166.9 957.095 165.47 958.243C164.041 959.392 162.252 960.016 160.408 960.01C160.264 960.01 160.119 960.006 159.973 959.998Z" fill="#2F2E41"/>
<path id="Vector_12" d="M150.702 544.045L155.334 642.518L157.009 678.344C157.076 679.903 157.613 681.408 158.553 682.665C159.492 683.922 160.791 684.874 162.283 685.4L270.933 724.175C271.811 724.496 272.74 724.657 273.677 724.649C274.747 724.654 275.807 724.447 276.794 724.039C277.781 723.631 278.675 723.032 279.422 722.277C280.168 721.522 280.753 720.626 281.14 719.643C281.528 718.66 281.71 717.611 281.677 716.557L277.223 539.499C276.93 524.972 271.502 511.001 261.875 499.995C252.247 488.988 239.024 481.635 224.483 479.204C223.433 479.046 222.363 478.888 221.294 478.748C212.278 477.645 203.126 478.502 194.482 481.259C185.838 484.016 177.913 488.605 171.263 494.704C164.377 500.943 158.967 508.596 155.414 517.122C151.861 525.648 150.252 534.839 150.702 544.045L150.702 544.045Z" fill="#CCCCCC"/>
<path id="Vector_13" d="M322.835 704.526C320.265 703.74 317.917 702.374 315.979 700.535C314.04 698.697 312.565 696.438 311.67 693.938C310.775 691.438 310.486 688.767 310.826 686.137C311.165 683.507 312.124 680.993 313.625 678.793L276.78 630.526L308.575 628.587L338.689 674.72C341.913 677.175 344.156 680.671 345.025 684.593C345.895 688.515 345.334 692.613 343.443 696.169C341.552 699.725 338.45 702.512 334.681 704.04C330.913 705.568 326.719 705.74 322.835 704.526H322.835Z" fill="#FFB8B8"/>
<path id="Vector_14" d="M296.929 670.058C295.953 669.668 295.065 669.091 294.317 668.36C293.569 667.63 292.975 666.76 292.57 665.802L237.061 535.511C235.972 532.96 235.404 530.223 235.389 527.456C235.374 524.688 235.913 521.945 236.975 519.383C238.037 516.821 239.601 514.49 241.577 512.524C243.554 510.557 245.904 508.994 248.495 507.923C251.085 506.852 253.864 506.294 256.673 506.282C259.482 506.269 262.266 506.802 264.866 507.85C267.466 508.898 269.831 510.441 271.825 512.39C273.82 514.338 275.405 516.655 276.49 519.208L331.999 649.5C332.819 651.432 332.828 653.606 332.024 655.544C331.22 657.482 329.668 659.027 327.709 659.84L303.066 670.029C302.096 670.434 301.054 670.645 300.001 670.65C298.947 670.655 297.903 670.454 296.929 670.058L296.929 670.058Z" fill="#CCCCCC"/>
</g>
<g id="hand_book">
<path id="Vector_15" d="M207.304 665.462L260.619 564.892C261.648 562.958 263.413 561.504 265.527 560.851C267.642 560.197 269.933 560.396 271.898 561.405L349.285 601.221C351.248 602.234 352.724 603.973 353.387 606.056C354.051 608.139 353.849 610.397 352.825 612.333L299.51 712.904C298.482 714.838 296.717 716.291 294.602 716.945C292.488 717.599 290.196 717.4 288.231 716.391L210.844 676.574C208.881 675.561 207.406 673.823 206.742 671.739C206.079 669.656 206.281 667.399 207.304 665.462Z" fill="#3F3D56"/>
<path id="Vector_16" d="M243.06 619.514C242.112 617.033 240.588 614.805 238.611 613.007C236.634 611.209 234.258 609.892 231.672 609.16C229.086 608.427 226.362 608.301 223.717 608.79C221.073 609.279 218.581 610.37 216.441 611.976L165.357 578.592L165.271 609.975L213.794 636.866C216.472 639.891 220.146 641.891 224.172 642.515C228.198 643.138 232.317 642.345 235.809 640.275C239.3 638.205 241.941 634.99 243.266 631.194C244.592 627.397 244.519 623.262 243.06 619.514Z" fill="#FFB8B8"/>
<path id="Vector_17" d="M178.473 626.572L136.724 593.992C132.208 592.498 128.127 589.947 124.832 586.557C121.537 583.167 119.126 579.04 117.806 574.53C116.486 570.02 116.297 565.262 117.254 560.665C118.212 556.067 120.288 551.767 123.303 548.133L161.21 499.191C163.844 496.02 167.549 493.889 171.647 493.187C175.745 492.485 179.962 493.259 183.528 495.369C187.094 497.478 189.771 500.781 191.068 504.674C192.366 508.567 192.198 512.791 190.595 516.572L160.602 564.906L204.679 585.502C205.704 585.981 206.614 586.669 207.349 587.52C208.085 588.371 208.628 589.366 208.944 590.44C209.26 591.513 209.341 592.64 209.182 593.747C209.023 594.853 208.627 595.914 208.021 596.859L190.229 624.599C189.627 625.535 188.833 626.336 187.897 626.951C186.961 627.565 185.905 627.98 184.797 628.166C184.753 628.174 184.708 628.181 184.664 628.187C183.575 628.349 182.463 628.29 181.398 628.012C180.333 627.734 179.338 627.244 178.473 626.572Z" fill="#CCCCCC"/>
</g>
<path id="question_mark_dot" d="M740.034 1003.87C783.615 1003.87 818.944 969.062 818.944 926.127C818.944 883.192 783.615 848.387 740.034 848.387C696.453 848.387 661.123 883.192 661.123 926.127C661.123 969.062 696.453 1003.87 740.034 1003.87Z" fill="#63CEFF"/>
<path id="question_mark_upper" d="M726.533 113.052C603.206 113.911 502.228 212.645 500.476 334.134C500.46 335.255 500.452 343.142 500.453 353.458C500.454 368.583 506.553 383.088 517.408 393.783C528.264 404.478 542.987 410.487 558.339 410.489H558.339C565.95 410.487 573.485 409.008 580.515 406.137C587.545 403.265 593.932 399.056 599.31 393.752C604.689 388.447 608.953 382.151 611.861 375.222C614.768 368.293 616.261 360.868 616.255 353.37C616.249 346.353 616.245 341.497 616.245 341.198C616.241 322.422 621.199 303.969 630.63 287.653C640.061 271.337 653.641 257.721 670.033 248.143C686.426 238.566 705.067 233.358 724.123 233.031C743.179 232.704 761.993 237.269 778.714 246.279C795.435 255.288 809.488 268.43 819.49 284.412C829.492 300.395 835.099 318.667 835.759 337.432C836.418 356.197 832.108 374.808 823.253 391.434C814.397 408.06 801.301 422.128 785.252 432.255L785.272 432.279C785.272 432.279 702.882 484.534 677.763 556.217L677.785 556.222C673.368 570.907 671.13 586.144 671.14 601.46C671.14 607.756 671.516 662.844 672.242 707.556C672.496 722.983 678.896 737.693 690.061 748.513C701.226 759.333 716.261 765.395 731.923 765.392H731.923C739.792 765.391 747.584 763.858 754.85 760.88C762.116 757.902 768.712 753.538 774.259 748.039C779.806 742.54 784.195 736.014 787.173 728.838C790.151 721.662 791.659 713.976 791.61 706.223C791.358 665.276 791.221 617.596 791.221 614.136C791.221 570.12 834.322 526.264 869.727 497.664C910.496 464.731 939.834 419.851 951.617 369.225C954.225 358.802 955.663 348.128 955.905 337.396C955.905 307.798 949.96 278.492 938.412 251.167C926.865 223.842 909.943 199.038 888.623 178.185C867.302 157.332 842.003 140.84 814.184 129.662C786.366 118.484 756.576 112.839 726.533 113.052Z" fill="#63CEFF"/>
<g id="girl_right_hand">
<path id="Vector_18" d="M886.116 449.215C885.824 451.683 886.084 454.184 886.879 456.542C887.674 458.9 888.984 461.057 890.716 462.862C892.449 464.667 894.563 466.076 896.908 466.99C899.253 467.903 901.773 468.299 904.29 468.149L927.842 523.907L945.657 497.89L920.561 448.93C920.025 444.781 917.963 440.969 914.765 438.218C911.567 435.466 907.456 433.965 903.21 434.001C898.964 434.036 894.879 435.604 891.729 438.408C888.578 441.212 886.581 445.058 886.116 449.215L886.116 449.215Z" fill="#A0616A"/>
<path id="Vector_19" d="M966.9 565.182C965 565.181 963.105 564.997 961.242 564.633C956.735 563.788 952.508 561.863 948.933 559.029C945.359 556.195 942.548 552.538 940.746 548.381L907.751 508.745C907.053 507.907 906.545 506.932 906.261 505.885C905.978 504.838 905.924 503.743 906.105 502.674C906.285 501.605 906.695 500.586 907.308 499.686C907.921 498.786 908.721 498.025 909.657 497.455L933.131 483.139C933.998 482.61 934.963 482.256 935.969 482.097C936.975 481.937 938.004 481.975 938.995 482.21C939.987 482.444 940.921 482.869 941.744 483.461C942.568 484.053 943.264 484.799 943.794 485.658L967.049 523.402L1011.58 490.977C1015.13 489.145 1019.23 488.632 1023.13 489.53C1027.02 490.428 1030.46 492.678 1032.82 495.868C1035.17 499.059 1036.28 502.978 1035.95 506.908C1035.61 510.839 1033.85 514.519 1030.99 517.276L986.535 557.222C981.312 562.323 974.255 565.184 966.9 565.182Z" fill="#2F2E41"/>
</g>
<g id="girl_left_hand">
<path id="Vector_20" d="M1067.92 651.714C1070.42 651.419 1072.83 650.587 1074.97 649.276C1077.11 647.965 1078.94 646.207 1080.32 644.127C1081.69 642.046 1082.59 639.693 1082.95 637.233C1083.3 634.774 1083.11 632.267 1082.37 629.89L1131.92 594.335L1102.09 583.329L1059.61 618.78C1055.64 620.261 1052.36 623.124 1050.39 626.829C1048.41 630.534 1047.89 634.823 1048.92 638.882C1049.94 642.941 1052.44 646.49 1055.94 648.855C1059.44 651.22 1063.7 652.237 1067.92 651.714Z" fill="#A0616A"/>
<path id="Vector_21" d="M1107.48 626.173C1107.42 626.173 1107.36 626.173 1107.3 626.171C1106.21 626.145 1105.15 625.895 1104.17 625.438C1103.19 624.981 1102.32 624.327 1101.62 623.517L1080.75 599.53C1080.04 598.713 1079.51 597.757 1079.2 596.725C1078.89 595.692 1078.81 594.608 1078.96 593.542C1079.11 592.476 1079.49 591.453 1080.07 590.541C1080.65 589.63 1081.42 588.85 1082.33 588.253L1121.41 562.586L1086 520.652C1083.94 517.27 1083.19 513.27 1083.87 509.384C1084.56 505.498 1086.64 501.985 1089.74 499.487C1092.84 496.989 1096.75 495.673 1100.75 495.779C1104.75 495.885 1108.58 497.406 1111.54 500.064L1154.57 541.49C1157.96 544.538 1160.54 548.35 1162.1 552.599C1163.67 556.848 1164.16 561.407 1163.54 565.884C1162.92 570.362 1161.2 574.624 1158.54 578.306C1155.88 581.987 1152.36 584.977 1148.26 587.02L1113.1 623.785C1112.37 624.538 1111.5 625.139 1110.54 625.549C1109.57 625.96 1108.53 626.172 1107.48 626.173Z" fill="#2F2E41"/>
</g>
<g id="girl_head">
<path id="Vector_22" d="M1072.4 462.801C1100.83 462.801 1123.87 440.101 1123.87 412.1C1123.87 384.099 1100.83 361.4 1072.4 361.4C1043.98 361.4 1020.94 384.099 1020.94 412.1C1020.94 440.101 1043.98 462.801 1072.4 462.801Z" fill="#2F2E41"/>
<path id="Vector_23" d="M1064.58 463.097C1087.85 463.097 1106.72 444.513 1106.72 421.588C1106.72 398.664 1087.85 380.08 1064.58 380.08C1041.31 380.08 1022.45 398.664 1022.45 421.588C1022.45 444.513 1041.31 463.097 1064.58 463.097Z" fill="#A0616A"/>
<path id="Vector_24" d="M1118.65 394.883C1127.95 394.883 1135.49 387.455 1135.49 378.293C1135.49 369.13 1127.95 361.703 1118.65 361.703C1109.35 361.703 1101.81 369.13 1101.81 378.293C1101.81 387.455 1109.35 394.883 1118.65 394.883Z" fill="#2F2E41"/>
<path id="Vector_25" d="M1055.25 354.64C1043.42 354.64 1032.08 359.269 1023.71 367.51C1015.35 375.75 1010.65 386.926 1010.65 398.58V417.17H1033.86L1044.96 398.58L1048.29 417.17H1118.72L1099.85 398.58C1099.85 386.926 1095.15 375.75 1086.79 367.51C1078.42 359.269 1067.08 354.64 1055.25 354.64Z" fill="#2F2E41"/>
<path id="Vector_26" d="M1121.63 361.512C1123.5 355.775 1127.35 350.869 1132.52 347.655C1137.69 344.442 1143.85 343.128 1149.9 343.943C1160.64 345.71 1169.12 354.209 1174.18 363.701C1179.23 373.193 1181.57 383.816 1184.97 393.999C1188.37 404.182 1193.19 414.421 1201.77 421.013C1210.35 427.604 1223.51 429.392 1231.94 422.611C1230.98 429.678 1227.78 436.268 1222.81 441.449C1217.84 446.63 1211.34 450.139 1204.23 451.481C1197.12 452.823 1189.77 451.929 1183.2 448.927C1176.64 445.924 1171.2 440.964 1167.65 434.748C1163.2 426.954 1162.06 417.819 1160.74 408.973C1159.42 400.128 1157.71 390.975 1152.4 383.724C1147.09 376.473 1137.15 371.737 1128.72 375.04L1121.63 361.512Z" fill="#2F2E41"/>
</g>
<g id="boy_head">
<path id="Vector_27" d="M220.851 463.604C244.12 463.604 262.984 445.02 262.984 422.096C262.984 399.171 244.12 380.587 220.851 380.587C197.581 380.587 178.717 399.171 178.717 422.096C178.717 445.02 197.581 463.604 220.851 463.604Z" fill="#FFB8B8"/>
<path id="Vector_28" d="M188.75 448.239C188.569 447.718 188.512 447.164 188.582 446.617C188.653 446.071 188.849 445.548 189.156 445.088C189.464 444.628 189.874 444.244 190.355 443.964C190.837 443.685 191.377 443.517 191.934 443.475C193.075 443.536 194.192 443.825 195.217 444.323C196.242 444.821 197.154 445.519 197.897 446.374C199.422 448.106 201.197 449.607 203.166 450.83C205.204 451.842 207.968 451.698 209.13 449.769C210.221 447.957 209.474 445.53 208.813 443.425C207.132 438.07 206.192 432.516 206.017 426.914C205.827 420.66 206.722 414.134 210.236 409.256C214.772 402.961 222.882 400.572 230.557 400.745C238.232 400.918 245.782 403.252 253.384 404.728C256.009 405.237 259.094 405.498 260.849 403.494C262.716 401.363 262.03 397.914 261.236 395.037C259.176 387.572 256.991 379.853 252.204 373.824C247.029 367.559 239.636 363.458 231.514 362.348C223.717 361.397 215.802 362.282 208.42 364.931C196.393 368.666 185.81 375.929 178.086 385.75C170.124 396.194 166.684 409.319 168.517 422.254C170.308 433.521 176.369 443.7 185.476 450.739L188.75 448.239Z" fill="#2F2E41"/>
</g>
</g>
</svg>
